<?xml version="1.0" encoding="UTF-8" standalone="no"?>
<!-- Created with Inkscape (http://www.inkscape.org/) -->

<svg
   width="70mm"
   height="70mm"
   viewBox="0 0 70 70"
   version="1.1"
   id="svg5"
   xml:space="preserve"
   inkscape:version="1.2.2 (b0a8486, 2022-12-01)"
   sodipodi:docname="logo.svg"
   inkscape:export-filename="logo.png"
   inkscape:export-xdpi="96"
   inkscape:export-ydpi="96"
   xmlns:inkscape="http://www.inkscape.org/namespaces/inkscape"
   xmlns:sodipodi="http://sodipodi.sourceforge.net/DTD/sodipodi-0.dtd"
   xmlns:xlink="http://www.w3.org/1999/xlink"
   xmlns="http://www.w3.org/2000/svg"
   xmlns:svg="http://www.w3.org/2000/svg"><sodipodi:namedview
     id="namedview7"
     pagecolor="#ffffff"
     bordercolor="#000000"
     borderopacity="0.25"
     inkscape:showpageshadow="2"
     inkscape:pageopacity="0.0"
     inkscape:pagecheckerboard="0"
     inkscape:deskcolor="#d1d1d1"
     inkscape:document-units="mm"
     showgrid="false"
     inkscape:zoom="3.6123611"
     inkscape:cx="137.72156"
     inkscape:cy="172.60179"
     inkscape:window-width="1280"
     inkscape:window-height="697"
     inkscape:window-x="0"
     inkscape:window-y="23"
     inkscape:window-maximized="0"
     inkscape:current-layer="layer1" /><defs
     id="defs2"><clipPath
       id="b"><path
         id="a"
         d="m -69.7,28.5 0.76,0.16 c 8.84,-2.94 28.68,8.64 24.26,18.96 -1.12,1.62 -0.93001,4.5 0.41998,6.31 l -24.81,24.82 c -1.39,-1.39 -4.48,-1.36 -5.9,0 l -41.03,39.38 c -3.74,3.59 -0.8,6.64 0.78,8.25 l 7.36,7.36 c 1.61,1.6 5.86,3.76 8.88,0.56 l 38.72,-40.81 c 1.35,-1.42 1.36,-4.47 0,-5.87 0,0 0.01001,-0.02 0,-0.02 l 24.91,-24.9 c 2.63,2.37 5.1138,2.5748 7.47,1.93 4.5506,-1.2454 7.0872,3.2066 9.81,6.46 l -1.23,1.21 c -1.82,1.84 -1.65,4.94 0.39,6.98 2.04,2.04 5.15,2.21 6.97,0.39 l 8.14,-8.13 c 1.82,-1.84 1.65,-4.94 -0.39999,-6.97 -1.84,-1.85 -4.51,-2.09 -6.37,-0.77 -5.58,-6.26 -2.65,-7.2 -10.01,-15.35 l -13.79,-14.09 c -9.93,-9.74 -22.83,-9.73 -35.33,-5.86 z" /></clipPath></defs><g
     inkscape:label="Layer 1"
     inkscape:groupmode="layer"
     id="layer1"><rect
       style="fill:#164450;stroke-width:0.269463"
       id="rect25439"
       width="70"
       height="70"
       x="0"
       y="0"
       ry="35"
       rx="35" /><g
       transform="matrix(0.44979167,0,0,0.44979167,101.3648,-261.93652)"
       id="g23090"><g
         transform="matrix(0.54529,0,0,0.54529,-1613.7,-23.611)"
         id="g23088"><path
           class="st0"
           d="m 2671.2,1289.2 32,0.7 2.6,25 h -37.4 z"
           id="path23068" /><path
           class="st1"
           d="m 2671.2,1289.2 -0.8,7.8 h 33.6 l -0.7,-7.1 z"
           id="path23070" /><path
           class="st0"
           d="m 2621.4,1295.2 h 131.5 c 3.6,0 6.6,-2.9 6.6,-6.6 v -81.8 c 0,-3.6 -2.9,-6.6 -6.6,-6.6 h -131.5 c -3.6,0 -6.6,2.9 -6.6,6.6 v 81.8 c 0,3.6 2.9,6.6 6.6,6.6 z"
           id="path23072" /><path
           class="st2"
           d="m 2614.7,1198.1 v 83.8 h 144.8 v -83.8 z m 3.5,4.4 h 137.3 l -18.4,69 -102.9,-6.9 z"
           id="path23074" /><path
           class="st2"
           d="M 2622.2,1192 H 2752 c 4.1,0 7.5,3.4 7.5,7.5 v 24.9 c 0,4.1 -3.4,7.5 -7.5,7.5 h -129.8 c -4.1,0 -7.5,-3.4 -7.5,-7.5 v -24.9 c 0,-4.2 3.4,-7.5 7.5,-7.5 z"
           id="path23076" /><path
           class="st2"
           d="m 2658.7,1311.1 h 56.8 c 0.6,0 1.1,0.5 1.1,1.1 v 1.6 c 0,0.6 -0.5,1.1 -1.1,1.1 h -56.8 c -0.6,0 -1.1,-0.5 -1.1,-1.1 v -1.6 c 0,-0.6 0.5,-1.1 1.1,-1.1 z"
           id="path23078" /><circle
           class="st2"
           cx="2687.1001"
           cy="1288.7"
           r="3.7"
           id="circle23080" /><rect
           class="st3"
           x="2620.6001"
           y="1198.3"
           width="133"
           height="76.699997"
           id="rect23082" /><rect
           class="st1"
           x="2621.6001"
           y="1199.3"
           width="132"
           height="74.599998"
           id="rect23084" /><path
           class="st4"
           d="m 2687.2,1192 43.2,89.9 h 29.1 v -83.8 h -0.1 c -0.6,-3.5 -3.7,-6.1 -7.4,-6.1 z"
           id="path23086" /></g></g><path
       class="st1"
       d="m 42.661841,32.486347 h 11.919971 c 0.515061,0 0.956541,0.416954 0.956541,0.956541 v 18.836498 c 0,0.515061 -0.416954,0.956541 -0.956541,0.956541 H 42.661841 c -0.515061,0 -0.956541,-0.416954 -0.956541,-0.956541 V 33.442888 c 0,-0.51506 0.44148,-0.956541 0.956541,-0.956541 z"
       id="path23112"
       style="stroke-width:0.245267;fill:#501644" /><rect
       class="st9"
       x="42.784473"
       y="33.957935"
       width="11.674704"
       height="17.438477"
       id="rect23114"
       style="stroke-width:0.245267" /><path
       class="st6"
       d="m 46.095577,33.050461 h 0.09811 c 0.07358,0 0.14716,0.07358 0.14716,0.14716 v 0.04905 c 0,0.07358 -0.07358,0.14716 -0.14716,0.14716 h -0.09811 c -0.07358,0 -0.14716,-0.07358 -0.14716,-0.14716 v -0.04905 c 0,-0.07358 0.07358,-0.14716 0.14716,-0.14716 z"
       id="path23116"
       style="stroke-width:0.245267" /><path
       class="st6"
       d="m 47.174752,33.074988 h 2.845096 c 0.02453,0 0.04905,0.02453 0.04905,0.04905 v 0.171687 c 0,0.02453 -0.02453,0.04905 -0.04905,0.04905 h -2.845096 c -0.02453,0 -0.04905,-0.02453 -0.04905,-0.04905 v -0.171687 c 0,-0.02453 0.02453,-0.04905 0.04905,-0.04905 z"
       id="path23118"
       style="stroke-width:0.245267" /><path
       class="st6"
       d="m 48.621826,51.764326 c -0.318847,0 -0.58864,0.269793 -0.58864,0.58864 0,0.318847 0.269793,0.588641 0.58864,0.588641 0.318847,0 0.588641,-0.269794 0.588641,-0.588641 0,-0.318847 -0.269794,-0.58864 -0.588641,-0.58864 z m 0,0.171686 c 0.220741,0 0.416954,0.196214 0.416954,0.416954 0,0.22074 -0.196213,0.416954 -0.416954,0.416954 -0.22074,0 -0.416953,-0.196214 -0.416953,-0.416954 0,-0.22074 0.171686,-0.416954 0.416953,-0.416954 z"
       id="path23120"
       style="stroke-width:0.245267" /><rect
       class="st9"
       x="42.858067"
       y="34.031528"
       width="11.601124"
       height="17.364897"
       id="rect23122"
       style="stroke-width:0.245267" /><path
       class="st4"
       d="m 43.814595,32.486347 9.957836,20.74958 h 0.809381 c 0.515061,0 0.956541,-0.416954 0.956541,-0.956541 V 33.442888 c 0,-0.51506 -0.416954,-0.956541 -0.956541,-0.956541 z"
       id="path23124"
       style="stroke-width:0.245267" /><path
       class="st10"
       d="m 38.083778,42.686191 h 6.131672 c 0.343374,0 0.613168,0.2698 0.613168,0.61317 v 11.91997 c 0,0.34337 -0.269794,0.61317 -0.613168,0.61317 h -6.131672 c -0.343374,0 -0.613167,-0.2698 -0.613167,-0.61317 v -11.91997 c 0,-0.34337 0.269793,-0.61317 0.613167,-0.61317 z"
       id="path23128"
       style="fill:#0b2228;stroke-width:0.245267" /><rect
       class="st9"
       x="37.715855"
       y="43.887989"
       width="6.9165268"
       height="10.497423"
       id="rect23130"
       style="stroke-width:0.245267" /><path
       class="st6"
       d="m 39.825173,43.103151 h 0.02453 c 0.04905,0 0.09811,0.049 0.09811,0.0981 v 0.0245 c 0,0.049 -0.04905,0.0981 -0.09811,0.0981 h -0.02453 c -0.04905,0 -0.09811,-0.0491 -0.09811,-0.0981 v -0.0245 c 0.02453,-0.0736 0.04905,-0.0981 0.09811,-0.0981 z"
       id="path23132"
       style="stroke-width:0.245267" /><path
       class="st6"
       d="m 40.389287,43.103151 h 1.496128 c 0.02453,0 0.04905,0.0245 0.04905,0.049 v 0.0981 c 0,0.0245 -0.02453,0.049 -0.04905,0.049 h -1.496128 c -0.02453,0 -0.04905,-0.0245 -0.04905,-0.049 v -0.0981 c 0.02453,-0.0245 0.02453,-0.049 0.04905,-0.049 z"
       id="path23134"
       style="stroke-width:0.245267" /><path
       class="st6"
       d="m 41.149614,54.679741 c -0.269793,0 -0.490534,0.22074 -0.490534,0.49054 0,0.26979 0.220741,0.49053 0.490534,0.49053 0.269794,0 0.490534,-0.22074 0.490534,-0.49053 0,-0.2698 -0.22074,-0.49054 -0.490534,-0.49054 z m 0,0.12264 c 0.196214,0 0.343374,0.14716 0.343374,0.34337 0,0.19621 -0.14716,0.34337 -0.343374,0.34337 -0.196213,0 -0.343374,-0.14716 -0.343374,-0.34337 0,-0.17169 0.147161,-0.34337 0.343374,-0.34337 z"
       id="path23136"
       style="stroke-width:0.245267" /><rect
       class="st6"
       x="37.863037"
       y="44.010624"
       width="6.7693667"
       height="10.374789"
       id="rect23138"
       style="stroke-width:0.245267" /><path
       class="st4"
       d="m 39.334639,42.686191 5.469452,11.40491 v -10.81627 c 0,-0.34337 -0.269794,-0.61316 -0.613167,-0.61316 z"
       id="path23140"
       style="stroke-width:0.245267" /><g
       id="g25022"
       transform="matrix(0.26458333,0,0,0.26458333,7.8473618,10.22937)"
       style="fill:#ffb380;stroke-width:1.00157;stroke-dasharray:none"><use
         class="outline-big"
         x="125.5"
         y="-21.5"
         xlink:href="#a"
         id="use25007"
         style="fill:#ffb380;stroke-width:1.00157;stroke-dasharray:none" /><use
         class="outline-small stroke-aluminium5"
         x="125.5"
         y="-21.5"
         xlink:href="#a"
         id="use25009"
         style="fill:#ffb380;stroke-width:1.00157;stroke-dasharray:none" /><use
         class="stroke-highlight"
         x="125.5"
         y="-21.5"
         clip-path="url(#b)"
         xlink:href="#a"
         id="use25011"
         style="fill:#ffb380;stroke-width:1.00157;stroke-dasharray:none" /></g></g><style
     type="text/css"
     id="style23066">.st0{fill:#999999;} .st1{fill:#666666;} .st2{fill:#333333;} .st3{fill:#4D4D4D;} .st4{fill:#FFFFFF;fill-opacity:0.205;} .st5{fill:#555555;} .st6{fill:#B3B3B3;} .st7{fill:#E6E6E6;} .st8{fill:#B0BEC5;} .st9{fill:#CCCCCC;} .st10{fill:#0275D8;}</style></svg>
